<svg width="51" height="14" viewBox="0 0 51 14" fill="none" xmlns="http://www.w3.org/2000/svg">
<path d="M17.2674 11.12C16.5714 11.12 15.9874 11.016 15.5154 10.808C15.0434 10.592 14.6794 10.316 14.4234 9.98C14.1754 9.636 14.0434 9.272 14.0274 8.888C14.0274 8.824 14.0514 8.768 14.0994 8.72C14.1554 8.664 14.2194 8.636 14.2914 8.636H14.9034C14.9994 8.636 15.0714 8.66 15.1194 8.708C15.1674 8.756 15.1994 8.812 15.2154 8.876C15.2554 9.068 15.3514 9.26 15.5034 9.452C15.6634 9.636 15.8834 9.792 16.1634 9.92C16.4514 10.04 16.8194 10.1 17.2674 10.1C17.9554 10.1 18.4594 9.98 18.7794 9.74C19.1074 9.492 19.2714 9.164 19.2714 8.756C19.2714 8.476 19.1834 8.252 19.0074 8.084C18.8394 7.908 18.5794 7.752 18.2274 7.616C17.8754 7.48 17.4194 7.332 16.8594 7.172C16.2754 7.004 15.7914 6.82 15.4074 6.62C15.0234 6.42 14.7354 6.172 14.5434 5.876C14.3594 5.58 14.2674 5.204 14.2674 4.748C14.2674 4.316 14.3834 3.932 14.6154 3.596C14.8474 3.252 15.1794 2.98 15.6114 2.78C16.0514 2.58 16.5834 2.48 17.2074 2.48C17.7034 2.48 18.1354 2.548 18.5034 2.684C18.8794 2.812 19.1914 2.988 19.4394 3.212C19.6874 3.428 19.8754 3.664 20.0034 3.92C20.1314 4.168 20.1994 4.412 20.2074 4.652C20.2074 4.708 20.1874 4.764 20.1474 4.82C20.1074 4.868 20.0434 4.892 19.9554 4.892H19.3194C19.2634 4.892 19.2034 4.876 19.1394 4.844C19.0834 4.812 19.0394 4.752 19.0074 4.664C18.9594 4.336 18.7754 4.06 18.4554 3.836C18.1354 3.612 17.7194 3.5 17.2074 3.5C16.6874 3.5 16.2634 3.6 15.9354 3.8C15.6154 4 15.4554 4.312 15.4554 4.736C15.4554 5.008 15.5314 5.236 15.6834 5.42C15.8354 5.596 16.0754 5.752 16.4034 5.888C16.7314 6.024 17.1594 6.168 17.6874 6.32C18.3274 6.496 18.8514 6.684 19.2594 6.884C19.6674 7.076 19.9674 7.32 20.1594 7.616C20.3594 7.904 20.4594 8.276 20.4594 8.732C20.4594 9.236 20.3274 9.668 20.0634 10.028C19.7994 10.38 19.4274 10.652 18.9474 10.844C18.4754 11.028 17.9154 11.12 17.2674 11.12ZM21.1642 11C21.0842 11 21.0162 10.976 20.9602 10.928C20.9122 10.872 20.8882 10.804 20.8882 10.724V2.756C20.8882 2.676 20.9122 2.612 20.9602 2.564C21.0162 2.508 21.0842 2.48 21.1642 2.48H21.7642C21.8522 2.48 21.9202 2.508 21.9682 2.564C22.0162 2.612 22.0402 2.676 22.0402 2.756V5.552C22.2562 5.28 22.5202 5.06 22.8322 4.892C23.1442 4.724 23.5402 4.64 24.0202 4.64C24.5402 4.64 24.9802 4.756 25.3402 4.988C25.7082 5.212 25.9842 5.528 26.1682 5.936C26.3602 6.336 26.4562 6.804 26.4562 7.34V10.724C26.4562 10.804 26.4322 10.872 26.3842 10.928C26.3362 10.976 26.2682 11 26.1802 11H25.5802C25.5002 11 25.4322 10.976 25.3762 10.928C25.3282 10.872 25.3042 10.804 25.3042 10.724V7.4C25.3042 6.84 25.1682 6.404 24.8962 6.092C24.6242 5.772 24.2242 5.612 23.6962 5.612C23.2002 5.612 22.8002 5.772 22.4962 6.092C22.1922 6.404 22.0402 6.84 22.0402 7.4V10.724C22.0402 10.804 22.0162 10.872 21.9682 10.928C21.9202 10.976 21.8522 11 21.7642 11H21.1642ZM28.9287 11.12C28.5287 11.12 28.1647 11.04 27.8367 10.88C27.5087 10.72 27.2447 10.504 27.0447 10.232C26.8447 9.96 26.7447 9.652 26.7447 9.308C26.7447 8.756 26.9687 8.316 27.4167 7.988C27.8647 7.66 28.4487 7.444 29.1687 7.34L30.9567 7.088V6.74C30.9567 6.356 30.8447 6.056 30.6207 5.84C30.4047 5.624 30.0487 5.516 29.5527 5.516C29.1927 5.516 28.9007 5.588 28.6767 5.732C28.4607 5.876 28.3087 6.06 28.2207 6.284C28.1727 6.404 28.0887 6.464 27.9687 6.464H27.4287C27.3407 6.464 27.2727 6.44 27.2247 6.392C27.1847 6.336 27.1647 6.272 27.1647 6.2C27.1647 6.08 27.2087 5.932 27.2967 5.756C27.3927 5.58 27.5367 5.408 27.7287 5.24C27.9207 5.072 28.1647 4.932 28.4607 4.82C28.7647 4.7 29.1327 4.64 29.5647 4.64C30.0447 4.64 30.4487 4.704 30.7767 4.832C31.1047 4.952 31.3607 5.116 31.5447 5.324C31.7367 5.532 31.8727 5.768 31.9527 6.032C32.0407 6.296 32.0847 6.564 32.0847 6.836V10.724C32.0847 10.804 32.0567 10.872 32.0007 10.928C31.9527 10.976 31.8887 11 31.8087 11H31.2567C31.1687 11 31.1007 10.976 31.0527 10.928C31.0047 10.872 30.9807 10.804 30.9807 10.724V10.208C30.8767 10.352 30.7367 10.496 30.5607 10.64C30.3847 10.776 30.1647 10.892 29.9007 10.988C29.6367 11.076 29.3127 11.12 28.9287 11.12ZM29.1807 10.22C29.5087 10.22 29.8087 10.152 30.0807 10.016C30.3527 9.872 30.5647 9.652 30.7167 9.356C30.8767 9.06 30.9567 8.688 30.9567 8.24V7.904L29.5647 8.108C28.9967 8.188 28.5687 8.324 28.2807 8.516C27.9927 8.7 27.8487 8.936 27.8487 9.224C27.8487 9.448 27.9127 9.636 28.0407 9.788C28.1767 9.932 28.3447 10.04 28.5447 10.112C28.7527 10.184 28.9647 10.22 29.1807 10.22ZM35.0898 11.12C34.6498 11.12 34.2698 11.044 33.9498 10.892C33.6298 10.732 33.3658 10.52 33.1578 10.256C32.9578 9.984 32.8058 9.676 32.7018 9.332C32.6058 8.988 32.5498 8.624 32.5338 8.24C32.5258 8.112 32.5218 7.992 32.5218 7.88C32.5218 7.768 32.5258 7.648 32.5338 7.52C32.5498 7.144 32.6058 6.784 32.7018 6.44C32.8058 6.096 32.9578 5.788 33.1578 5.516C33.3658 5.244 33.6298 5.032 33.9498 4.88C34.2698 4.72 34.6498 4.64 35.0898 4.64C35.5618 4.64 35.9538 4.724 36.2658 4.892C36.5778 5.06 36.8338 5.268 37.0338 5.516V2.756C37.0338 2.676 37.0578 2.612 37.1058 2.564C37.1618 2.508 37.2298 2.48 37.3098 2.48H37.8858C37.9658 2.48 38.0298 2.508 38.0778 2.564C38.1338 2.612 38.1618 2.676 38.1618 2.756V10.724C38.1618 10.804 38.1338 10.872 38.0778 10.928C38.0298 10.976 37.9658 11 37.8858 11H37.3458C37.2578 11 37.1898 10.976 37.1418 10.928C37.0938 10.872 37.0698 10.804 37.0698 10.724V10.22C36.8698 10.476 36.6098 10.692 36.2898 10.868C35.9698 11.036 35.5698 11.12 35.0898 11.12ZM35.3418 10.148C35.7418 10.148 36.0618 10.056 36.3018 9.872C36.5418 9.688 36.7218 9.456 36.8418 9.176C36.9618 8.888 37.0258 8.596 37.0338 8.3C37.0418 8.172 37.0458 8.02 37.0458 7.844C37.0458 7.66 37.0418 7.504 37.0338 7.376C37.0258 7.096 36.9578 6.82 36.8298 6.548C36.7098 6.276 36.5258 6.052 36.2778 5.876C36.0378 5.7 35.7258 5.612 35.3418 5.612C34.9338 5.612 34.6098 5.704 34.3698 5.888C34.1298 6.064 33.9578 6.3 33.8538 6.596C33.7498 6.884 33.6898 7.196 33.6738 7.532C33.6658 7.764 33.6658 7.996 33.6738 8.228C33.6898 8.564 33.7498 8.88 33.8538 9.176C33.9578 9.464 34.1298 9.7 34.3698 9.884C34.6098 10.06 34.9338 10.148 35.3418 10.148ZM41.4305 11.12C40.6065 11.12 39.9505 10.868 39.4625 10.364C38.9745 9.852 38.7065 9.156 38.6585 8.276C38.6505 8.172 38.6465 8.04 38.6465 7.88C38.6465 7.712 38.6505 7.576 38.6585 7.472C38.6905 6.904 38.8225 6.408 39.0545 5.984C39.2865 5.552 39.6025 5.22 40.0025 4.988C40.4105 4.756 40.8865 4.64 41.4305 4.64C42.0385 4.64 42.5465 4.768 42.9545 5.024C43.3705 5.28 43.6865 5.644 43.9025 6.116C44.1185 6.588 44.2265 7.14 44.2265 7.772V7.976C44.2265 8.064 44.1985 8.132 44.1425 8.18C44.0945 8.228 44.0305 8.252 43.9505 8.252H39.7985C39.7985 8.26 39.7985 8.276 39.7985 8.3C39.7985 8.324 39.7985 8.344 39.7985 8.36C39.8145 8.688 39.8865 8.996 40.0145 9.284C40.1425 9.564 40.3265 9.792 40.5665 9.968C40.8065 10.144 41.0945 10.232 41.4305 10.232C41.7185 10.232 41.9585 10.188 42.1505 10.1C42.3425 10.012 42.4985 9.916 42.6185 9.812C42.7385 9.7 42.8185 9.616 42.8585 9.56C42.9305 9.456 42.9865 9.396 43.0265 9.38C43.0665 9.356 43.1305 9.344 43.2185 9.344H43.7945C43.8745 9.344 43.9385 9.368 43.9865 9.416C44.0425 9.456 44.0665 9.516 44.0585 9.596C44.0505 9.716 43.9865 9.864 43.8665 10.04C43.7465 10.208 43.5745 10.376 43.3505 10.544C43.1265 10.712 42.8545 10.852 42.5345 10.964C42.2145 11.068 41.8465 11.12 41.4305 11.12ZM39.7985 7.424H43.0865V7.388C43.0865 7.028 43.0185 6.708 42.8825 6.428C42.7545 6.148 42.5665 5.928 42.3185 5.768C42.0705 5.6 41.7745 5.516 41.4305 5.516C41.0865 5.516 40.7905 5.6 40.5425 5.768C40.3025 5.928 40.1185 6.148 39.9905 6.428C39.8625 6.708 39.7985 7.028 39.7985 7.388V7.424ZM46.8214 11.12C46.3734 11.12 45.9894 11.064 45.6694 10.952C45.3494 10.84 45.0894 10.704 44.8894 10.544C44.6894 10.384 44.5374 10.224 44.4334 10.064C44.3374 9.904 44.2854 9.776 44.2774 9.68C44.2694 9.592 44.2974 9.524 44.3614 9.476C44.4254 9.428 44.4894 9.404 44.5534 9.404H45.0814C45.1294 9.404 45.1654 9.412 45.1894 9.428C45.2214 9.436 45.2614 9.468 45.3094 9.524C45.4134 9.636 45.5294 9.748 45.6574 9.86C45.7854 9.972 45.9414 10.064 46.1254 10.136C46.3174 10.208 46.5534 10.244 46.8334 10.244C47.2414 10.244 47.5774 10.168 47.8414 10.016C48.1054 9.856 48.2374 9.624 48.2374 9.32C48.2374 9.12 48.1814 8.96 48.0694 8.84C47.9654 8.72 47.7734 8.612 47.4934 8.516C47.2214 8.42 46.8454 8.32 46.3654 8.216C45.8854 8.104 45.5054 7.968 45.2254 7.808C44.9454 7.64 44.7454 7.444 44.6254 7.22C44.5054 6.988 44.4454 6.728 44.4454 6.44C44.4454 6.144 44.5334 5.86 44.7094 5.588C44.8854 5.308 45.1414 5.08 45.4774 4.904C45.8214 4.728 46.2494 4.64 46.7614 4.64C47.1774 4.64 47.5334 4.692 47.8294 4.796C48.1254 4.9 48.3694 5.032 48.5614 5.192C48.7534 5.344 48.8974 5.496 48.9934 5.648C49.0894 5.8 49.1414 5.928 49.1494 6.032C49.1574 6.112 49.1334 6.18 49.0774 6.236C49.0214 6.284 48.9574 6.308 48.8854 6.308H48.3814C48.3254 6.308 48.2774 6.296 48.2374 6.272C48.2054 6.248 48.1734 6.22 48.1414 6.188C48.0614 6.084 47.9654 5.98 47.8534 5.876C47.7494 5.772 47.6094 5.688 47.4334 5.624C47.2654 5.552 47.0414 5.516 46.7614 5.516C46.3614 5.516 46.0614 5.6 45.8614 5.768C45.6614 5.936 45.5614 6.148 45.5614 6.404C45.5614 6.556 45.6054 6.692 45.6934 6.812C45.7814 6.932 45.9494 7.04 46.1974 7.136C46.4454 7.232 46.8134 7.336 47.3014 7.448C47.8294 7.552 48.2454 7.692 48.5494 7.868C48.8534 8.044 49.0694 8.248 49.1974 8.48C49.3254 8.712 49.3894 8.98 49.3894 9.284C49.3894 9.62 49.2894 9.928 49.0894 10.208C48.8974 10.488 48.6094 10.712 48.2254 10.88C47.8494 11.04 47.3814 11.12 46.8214 11.12Z" fill="#1F1F1F"/>
<path fill-rule="evenodd" clip-rule="evenodd" d="M9.41444 9.02131L8.47524 8.48462L5.08371 10.421C4.88423 10.5353 4.63916 10.5353 4.43968 10.421L1.04902 8.48462L0.108947 9.02131C0.0415718 9.05985 0 9.13153 0 9.20915C0 9.28677 0.0415718 9.35845 0.108947 9.39699L4.65349 11.9939C4.72001 12.0319 4.80165 12.0319 4.86817 11.9939L9.41271 9.39699C9.48009 9.35845 9.52166 9.28677 9.52166 9.20915C9.52166 9.13153 9.48009 9.05985 9.41271 9.02131H9.41444Z" fill="#258AFF"/>
<path fill-rule="evenodd" clip-rule="evenodd" d="M9.41444 7.07355L8.47524 6.53687L5.08371 8.47328C4.88423 8.58752 4.63916 8.58752 4.43968 8.47328L1.04902 6.53687L0.108947 7.07355C0.0415718 7.1121 0 7.18377 0 7.2614C0 7.33902 0.0415718 7.41069 0.108947 7.44924L4.65349 10.0461C4.72001 10.0841 4.80165 10.0841 4.86817 10.0461L9.41271 7.44924C9.48009 7.41069 9.52166 7.33902 9.52166 7.2614C9.52166 7.18377 9.48009 7.1121 9.41271 7.07355H9.41444Z" fill="#258AFF"/>
<path fill-rule="evenodd" clip-rule="evenodd" d="M9.41443 5.12587L4.86988 2.52898C4.80336 2.49099 4.72172 2.49099 4.6552 2.52898L0.110656 5.12587C0.0432808 5.16441 0.00170898 5.23609 0.00170898 5.31371C0.00170898 5.39133 0.0432808 5.463 0.110656 5.50155L4.6552 8.09843C4.72172 8.13643 4.80336 8.13643 4.86988 8.09843L9.41443 5.50155C9.4818 5.463 9.52337 5.39133 9.52337 5.31371C9.52337 5.23609 9.4818 5.16441 9.41443 5.12587Z" fill="#258AFF"/>
</svg>
